:FULLY-SPECIFIED
:FORCE-ALL-JOINTS-BE-3DOF
:DEGREES
102
root 7.1565 16.8717 -27.0991 0.732932 6.27576 -3.71925
lfemur -23.0558 9.03375 -13.5271
ltibia 38.3998 0 0
lfoot -15.4315 -4.52247 0
ltoes 25.7245 0 0
rfemur -38.203 -8.27902 16.9849
rtibia 35.2433 0 0
rfoot -11.6525 -2.63755 0
rtoes -15.1708 0 0
lowerback 5.83221 1.47088 0.892979
upperback 1.42159 1.7982 1.16513
thorax -1.49621 0.888251 1.03554
lowerneck -11.335 -2.79669 2.50452
upperneck -2.68511 -3.97767 1.01317
head 1.02645 -1.99105 -0.250889
lclavicle -4.44715e-014 1.14056e-014 0
lhumerus -41.1273 -9.47019 90.4625
lradius 46.5516 0 0
lwrist 10.4381 0 0
lhand -4.47823 3.47373 0
lfingers 7.12502 0 0
lthumb 21.3418 32.6381 0
rclavicle -4.44715e-014 1.14056e-014 0
rhumerus -38.5134 1.89207 -73.0389
rradius 51.4969 0 0
rwrist 5.60826 0 0
rhand -9.33677 -18.6313 0
rfingers 7.12502 0 0
rthumb 16.5868 -26.7009 0
103
root 7.21188 16.8831 -27.0714 0.0720838 6.39781 -3.54447
lfemur -21.9286 8.82429 -13.7222
ltibia 37.7478 0 0
lfoot -15.3006 -5.0992 0
ltoes 26.1903 0 0
rfemur -39.9006 -8.58851 16.5512
rtibia 35.8216 0 0
rfoot -10.5513 -1.67923 0
rtoes -15.3718 0 0
lowerback 6.4095 1.3113 0.711044
upperback 1.64169 1.58078 1.20751
thorax -1.58942 0.780097 1.19272
lowerneck -11.3861 -2.73774 2.44974
upperneck -2.49573 -3.89713 0.981626
head 1.09685 -1.94883 -0.251639
lclavicle -4.65282e-014 1.13568e-014 0
lhumerus -41.0129 -9.5811 90.4306
lradius 46.6445 0 0
lwrist 10.5003 0 0
lhand -4.02548 3.56765 0
lfingers 7.12502 0 0
lthumb 21.7799 32.7065 0
rclavicle -4.65282e-014 1.13568e-014 0
rhumerus -38.6171 1.72378 -71.9487
rradius 51.9782 0 0
rwrist 5.50805 0 0
rhand -8.42093 -18.4539 0
rfingers 7.12502 0 0
rthumb 17.4678 -25.2517 0
104
root 7.26687 16.8944 -27.0436 -0.586219 6.52443 -3.36787
lfemur -20.8 8.61807 -13.9207
ltibia 37.0938 0 0
lfoot -15.1727 -5.66998 0
ltoes 26.6607 0 0
rfemur -41.5914 -8.89413 16.1127
rtibia 36.4092 0 0
rfoot -9.44768 -0.730171 0
rtoes -15.5508 0 0
lowerback 6.98341 1.14973 0.527822
upperback 1.86081 1.36076 1.24903
thorax -1.68186 0.670661 1.34972
lowerneck -11.4364 -2.67937 2.39381
upperneck -2.30508 -3.81732 0.951208
head 1.16765 -1.90693 -0.251896
lclavicle -4.85471e-014 1.13035e-014 0
lhumerus -40.9 -9.70099 90.4061
lradius 46.7369 0 0
lwrist 10.5621 0 0
lhand -3.56385 3.66667 0
lfingers 7.12502 0 0
lthumb 22.226 32.7763 0
rclavicle -4.85471e-014 1.13035e-014 0
rhumerus -38.7245 1.54772 -70.8625
rradius 52.4669 0 0
rwrist 5.40343 0 0
rhand -7.51241 -18.2773 0
rfingers 7.12502 0 0
rthumb 18.3419 -23.903 0
105
root 7.32129 16.9054 -27.0158 -1.23963 6.65623 -3.19006
lfemur -19.6747 8.41685 -14.1218
ltibia 36.4406 0 0
lfoot -15.0477 -6.23234 0
ltoes 27.1338 0 0
rfemur -43.2694 -9.19514 15.6704
rtibia 37.0052 0 0
rfoot -8.34487 0.205717 0
rtoes -15.7059 0 0
lowerback 7.55195 0.986517 0.343963
upperback 2.07816 1.13863 1.28949
thorax -1.77326 0.560177 1.50591
lowerneck -11.4857 -2.62199 2.3368
upperneck -2.11376 -3.73877 0.922176
head 1.23862 -1.86561 -0.2516
lclavicle -5.05201e-014 1.12452e-014 0
lhumerus -40.7893 -9.83026 90.3896
lradius 46.8289 0 0
lwrist 10.6235 0 0
lhand -3.09359 3.77104 0
lfingers 7.12502 0 0
lthumb 22.6801 32.8472 0
rclavicle -5.05201e-014 1.12452e-014 0
rhumerus -38.8356 1.36406 -69.784
rradius 52.9628 0 0
rwrist 5.29389 0 0
rhand -6.61463 -18.102 0
rfingers 7.12502 0 0
rthumb 19.2055 -22.6715 0
106
root 7.37494 16.9161 -26.9879 -1.88579 6.79382 -3.01165
lfemur -18.557 8.22239 -14.3246
ltibia 35.7909 0 0
lfoot -14.9249 -6.78381 0
ltoes 27.6078 0 0
rfemur -44.9281 -9.4908 15.2253
rtibia 37.6087 0 0
rfoot -7.24593 1.12451 0
rtoes -15.8354 0 0
lowerback 8.11316 0.822003 0.160119
upperback 2.29295 0.914866 1.32867
thorax -1.86334 0.44888 1.66066
lowerneck -11.5338 -2.566 2.27875
upperneck -1.92235 -3.66201 0.894784
head 1.30957 -1.82514 -0.250691
lclavicle -5.24389e-014 1.11817e-014 0
lhumerus -40.6814 -9.96933 90.3819
lradius 46.9206 0 0
lwrist 10.6843 0 0
lhand -2.61493 3.88101 0
lfingers 7.12502 0 0
lthumb 23.1418 32.9191 0
rclavicle -5.24389e-014 1.11817e-014 0
rhumerus -38.9503 1.173 -68.717
rradius 53.4657 0 0
rwrist 5.17893 0 0
rhand -5.73103 -17.9288 0
rfingers 7.12502 0 0
rthumb 20.0556 -21.5738 0
107
root 7.42765 16.9265 -26.9601 -2.52235 6.93779 -2.83321
lfemur -17.4517 8.03647 -14.5284
ltibia 35.1473 0 0
lfoot -14.804 -7.32192 0
ltoes 28.0805 0 0
rfemur -46.5615 -9.78039 14.7783
rtibia 38.2189 0 0
rfoot -6.154 2.02228 0
rtoes -15.9375 0 0
lowerback 8.66506 0.656531 -0.0230579
upperback 2.50438 0.689932 1.36637
thorax -1.95183 0.337005 1.81336
lowerneck -11.5805 -2.51179 2.21971
upperneck -1.73145 -3.58756 0.869286
head 1.38028 -1.78578 -0.249109
lclavicle -5.42954e-014 1.11126e-014 0
lhumerus -40.5769 -10.1186 90.3835
lradius 47.0118 0 0
lwrist 10.7445 0 0
lhand -2.12811 3.99684 0
lfingers 7.12502 0 0
lthumb 23.6108 32.9918 0
rclavicle -5.42954e-014 1.11126e-014 0
rhumerus -39.0685 0.974726 -67.6653
rradius 53.9755 0 0
rwrist 5.05805 0 0
rhand -4.86504 -17.7585 0
rfingers 7.12502 0 0
rthumb 20.8887 -20.6265 0
108
root 7.47921 16.9364 -26.9323 -3.14697 7.08875 -2.65537
lfemur -16.3632 7.86083 -14.7323
ltibia 34.5127 0 0
lfoot -14.6845 -7.84421 0
ltoes 28.5501 0 0
rfemur -48.1633 -10.0632 14.3304
rtibia 38.8349 0 0
rfoot -5.07218 2.89511 0
rtoes -16.0106 0 0
lowerback 9.20569 0.490444 -0.204916
upperback 2.71164 0.464303 1.40238
thorax -2.03845 0.224786 1.96338
lowerneck -11.6257 -2.45976 2.15974
upperneck -1.54164 -3.51595 0.845936
head 1.45054 -1.7478 -0.246793
lclavicle -5.60815e-014 1.10376e-014 0
lhumerus -40.4764 -10.2785 90.395
lradius 47.1026 0 0
lwrist 10.8042 0 0
lhand -1.63336 4.11876 0
lfingers 7.12502 0 0
lthumb 24.0869 33.0652 0
rclavicle -5.60815e-014 1.10376e-014 0
rhumerus -39.1901 0.769431 -66.6327
rradius 54.4919 0 0
rwrist 4.93075 0 0
rhand -4.02008 -17.5916 0
rfingers 7.12502 0 0
rthumb 21.7015 -19.8463 0
109
root 7.52945 16.9459 -26.9046 -3.7573 7.2473 -2.4787
lfemur -15.2962 7.69726 -14.9357
ltibia 33.8897 0 0
lfoot -14.5661 -8.34819 0
ltoes 29.0146 0 0
rfemur -49.7271 -10.3384 13.8828
rtibia 39.4559 0 0
rfoot -4.00361 3.73908 0
rtoes -16.0527 0 0
lowerback 9.73306 0.324087 -0.384805
upperback 2.91396 0.238453 1.43648
thorax -2.12292 0.112458 2.1101
lowerneck -11.6691 -2.4103 2.09888
upperneck -1.35353 -3.44771 0.824988
head 1.52014 -1.71146 -0.243684
lclavicle -5.7789e-014 1.09563e-014 0
lhumerus -40.3806 -10.4494 90.4172
lradius 47.193 0 0
lwrist 10.8631 0 0
lhand -1.13091 4.24704 0
lfingers 7.12502 0 0
lthumb 24.5698 33.1392 0
rclavicle -5.7789e-014 1.09563e-014 0
rhumerus -39.3151 0.557302 -65.6229
rradius 55.0149 0 0
rwrist 4.79652 0 0
rhand -3.1996 -17.429 0
rfingers 7.12502 0 0
rthumb 22.4908 -19.25 0
110
root 7.57817 16.9548 -26.8769 -4.35098 7.41405 -2.30382
lfemur -14.2551 7.5475 -15.1376
ltibia 33.2809 0 0
lfoot -14.4482 -8.8314 0
ltoes 29.4722 0 0
rfemur -51.2468 -10.6054 13.4362
rtibia 40.081 0 0
rfoot -2.9514 4.55026 0
rtoes -16.0623 0 0
lowerback 10.2452 0.157801 -0.562073
upperback 3.11051 0.0128539 1.46848
thorax -2.20498 0.000256485 2.25289
lowerneck -11.7106 -2.36382 2.03718
upperneck -1.16768 -3.38337 0.806698
head 1.58888 -1.67704 -0.239721
lclavicle -5.94098e-014 1.08683e-014 0
lhumerus -40.2901 -10.6318 90.4507
lradius 47.2831 0 0
lwrist 10.9213 0 0
lhand -0.621 4.38191 0
lfingers 7.12502 0 0
lthumb 25.0591 33.2137 0
rclavicle -5.94098e-014 1.08683e-014 0
rhumerus -39.4434 0.33853 -64.6397
rradius 55.5441 0 0
rwrist 4.65486 0 0
rhand -2.40703 -17.2712 0
rfingers 7.12502 0 0
rthumb 23.2533 -18.854 0
111
root 7.62518 16.963 -26.8495 -4.92566 7.58959 -2.13132
lfemur -13.2447 7.41332 -15.3373
ltibia 32.6892 0 0
lfoot -14.3306 -9.29138 0
ltoes 29.9207 0 0
rfemur -52.7161 -10.8633 12.9918
rtibia 40.7092 0 0
rfoot -1.91867 5.32474 0
rtoes -16.0375 0 0
lowerback 10.7402 -0.00807012 -0.736067
upperback 3.30053 -0.212021 1.49816
thorax -2.28434 -0.111585 2.39114
lowerneck -11.7501 -2.3207 1.9747
upperneck -0.98471 -3.32345 0.791318
head 1.65654 -1.64479 -0.234845
lclavicle -6.09358e-014 1.07734e-014 0
lhumerus -40.2056 -10.8261 90.496
lradius 47.3727 0 0
lwrist 10.9788 0 0
lhand -0.103867 4.52363 0
lfingers 7.12502 0 0
lthumb 25.5547 33.2883 0
rclavicle -6.09358e-014 1.07734e-014 0
rhumerus -39.5749 0.113304 -63.6869
rradius 56.0795 0 0
rwrist 4.50528 0 0
rhand -1.64578 -17.119 0
rfingers 7.12502 0 0
rthumb 23.9856 -18.6751 0
112
root 7.67031 16.9706 -26.8222 -5.479 7.77453 -1.9618
lfemur -12.2694 7.29648 -15.534
ltibia 32.1171 0 0
lfoot -14.2127 -9.72564 0
ltoes 30.3584 0 0
rfemur -54.1288 -11.1115 12.5505
rtibia 41.3398 0 0
rfoot -0.908551 6.05858 0
rtoes -15.9765 0 0
lowerback 11.216 -0.173183 -0.906138
upperback 3.48319 -0.435699 1.52531
thorax -2.36073 -0.22283 2.52422
lowerneck -11.7872 -2.28135 1.91148
upperneck -0.805193 -3.26849 0.779104
head 1.72292 -1.61498 -0.228996
lclavicle -6.23587e-014 1.06711e-014 0
lhumerus -40.1276 -11.0326 90.5538
lradius 47.4619 0 0
lwrist 11.0355 0 0
lhand 0.420255 4.67246 0
lfingers 7.12502 0 0
lthumb 26.0562 33.3632 0
rclavicle -6.23587e-014 1.06711e-014 0
rhumerus -39.7096 -0.118186 -62.7682
rradius 56.6208 0 0
rwrist 4.34726 0 0
rhand -0.919308 -16.9731 0
rfingers 7.12502 0 0
rthumb 24.6845 -18.73 0
113
root 7.71335 16.9773 -26.7951 -6.00865 7.96947 -1.79586
lfemur -11.3338 7.19876 -15.7269
ltibia 31.5675 0 0
lfoot -14.0942 -10.1317 0
ltoes 30.7832 0 0
rfemur -55.4785 -11.3492 12.1133
rtibia 41.9719 0 0
rfoot 0.075847 6.74787 0
rtoes -15.8776 0 0
lowerback 11.6707 -0.337194 -1.07163
upperback 3.65772 -0.657707 1.54972
thorax -2.43388 -0.333246 2.65151
lowerneck -11.8219 -2.24617 1.84758
upperneck -0.629723 -3.219 0.77031
head 1.7878 -1.58788 -0.222112
lclavicle -6.36704e-014 1.05612e-014 0
lhumerus -40.0568 -11.2518 90.6249
lradius 47.5507 0 0
lwrist 11.0913 0 0
lhand 0.951131 4.82863 0
lfingers 7.12502 0 0
lthumb 26.5634 33.438 0
rclavicle -6.36704e-014 1.05612e-014 0
rhumerus -39.8474 -0.35575 -61.8875
rradius 57.1679 0 0
rwrist 4.18031 0 0
rhand -0.23103 -16.8342 0
rfingers 7.12502 0 0
rthumb 25.3466 -19.0353 0
